<svg width="30" height="19" viewBox="0 0 30 19" fill="none" xmlns="http://www.w3.org/2000/svg">
<path d="M8.844 0.719999C10.54 0.719999 11.98 1.064 13.164 1.752C14.348 2.44 15.248 3.448 15.864 4.776C16.488 6.104 16.8 7.724 16.8 9.636C16.8 11.436 16.464 13 15.792 14.328C15.128 15.648 14.188 16.672 12.972 17.4C11.764 18.12 10.336 18.48 8.688 18.48C7 18.48 5.56 18.136 4.368 17.448C3.184 16.76 2.28 15.752 1.656 14.424C1.04 13.096 0.732 11.476 0.732 9.564C0.732 7.764 1.064 6.204 1.728 4.884C2.4 3.556 3.344 2.532 4.56 1.812C5.776 1.084 7.204 0.719999 8.844 0.719999ZM11.136 10.2C11.136 8.232 11.044 6.66 10.86 5.484C10.684 4.308 10.412 3.46 10.044 2.94C9.684 2.42 9.224 2.16 8.664 2.16C8.152 2.16 7.728 2.388 7.392 2.844C7.056 3.292 6.804 4.02 6.636 5.028C6.476 6.028 6.396 7.352 6.396 9C6.396 10.968 6.484 12.54 6.66 13.716C6.844 14.892 7.116 15.74 7.476 16.26C7.844 16.78 8.308 17.04 8.868 17.04C9.38 17.04 9.804 16.816 10.14 16.368C10.476 15.912 10.724 15.184 10.884 14.184C11.052 13.176 11.136 11.848 11.136 10.2ZM19.6073 4.008H20.3393C20.6193 4.008 20.8193 4.08 20.9393 4.224C21.0673 4.368 21.1313 4.64 21.1313 5.04V14.988C21.1313 15.308 21.0673 15.552 20.9393 15.72C20.8193 15.88 20.6433 15.988 20.4113 16.044L19.2113 16.308C18.6753 16.436 18.4073 16.724 18.4073 17.172C18.4073 17.428 18.4913 17.632 18.6593 17.784C18.8353 17.928 19.1033 18 19.4633 18H28.1873C28.4993 18 28.7313 17.928 28.8833 17.784C29.0353 17.632 29.1113 17.428 29.1113 17.172C29.1113 16.716 28.8873 16.432 28.4393 16.32L27.3713 16.044C27.1553 15.988 26.9873 15.88 26.8673 15.72C26.7553 15.552 26.6993 15.308 26.6993 14.988V1.788C26.6993 1.156 26.3753 0.839999 25.7273 0.839999C25.5273 0.839999 25.3353 0.863999 25.1513 0.912C24.9753 0.952 24.7793 1.028 24.5633 1.14C23.8993 1.46 23.2953 1.704 22.7513 1.872C22.2073 2.04 21.5433 2.124 20.7593 2.124H19.6793C19.3353 2.124 19.0633 2.216 18.8633 2.4C18.6633 2.576 18.5633 2.8 18.5633 3.072C18.5633 3.344 18.6473 3.568 18.8153 3.744C18.9833 3.92 19.2473 4.008 19.6073 4.008Z" fill="#0E8784"/>
</svg>
