<svg width="34" height="19" viewBox="0 0 34 19" fill="none" xmlns="http://www.w3.org/2000/svg">
<path d="M8.844 0.719999C10.54 0.719999 11.98 1.064 13.164 1.752C14.348 2.44 15.248 3.448 15.864 4.776C16.488 6.104 16.8 7.724 16.8 9.636C16.8 11.436 16.464 13 15.792 14.328C15.128 15.648 14.188 16.672 12.972 17.4C11.764 18.12 10.336 18.48 8.688 18.48C7 18.48 5.56 18.136 4.368 17.448C3.184 16.76 2.28 15.752 1.656 14.424C1.04 13.096 0.732 11.476 0.732 9.564C0.732 7.764 1.064 6.204 1.728 4.884C2.4 3.556 3.344 2.532 4.56 1.812C5.776 1.084 7.204 0.719999 8.844 0.719999ZM11.136 10.2C11.136 8.232 11.044 6.66 10.86 5.484C10.684 4.308 10.412 3.46 10.044 2.94C9.684 2.42 9.224 2.16 8.664 2.16C8.152 2.16 7.728 2.388 7.392 2.844C7.056 3.292 6.804 4.02 6.636 5.028C6.476 6.028 6.396 7.352 6.396 9C6.396 10.968 6.484 12.54 6.66 13.716C6.844 14.892 7.116 15.74 7.476 16.26C7.844 16.78 8.308 17.04 8.868 17.04C9.38 17.04 9.804 16.816 10.14 16.368C10.476 15.912 10.724 15.184 10.884 14.184C11.052 13.176 11.136 11.848 11.136 10.2ZM20.6753 13.944L19.8593 13.32L22.0673 12.192C22.9393 11.744 23.6793 11.228 24.2873 10.644C24.8953 10.06 25.3553 9.376 25.6673 8.592C25.9873 7.808 26.1473 6.896 26.1473 5.856C26.1473 4.896 26.0913 4.132 25.9793 3.564C25.8753 2.988 25.7193 2.572 25.5113 2.316C25.3113 2.06 25.0673 1.932 24.7793 1.932C24.3793 1.932 24.0953 2.116 23.9273 2.484C23.7673 2.852 23.6873 3.36 23.6873 4.008V5.676C23.6873 6.412 23.4593 7 23.0033 7.44C22.5553 7.88 21.9273 8.1 21.1193 8.1C20.3593 8.1 19.7513 7.864 19.2952 7.392C18.8473 6.92 18.6233 6.256 18.6233 5.4C18.6233 4.584 18.8593 3.82 19.3313 3.108C19.8113 2.396 20.5473 1.82 21.5393 1.38C22.5313 0.939999 23.7993 0.719999 25.3433 0.719999C26.8713 0.719999 28.1233 0.931999 29.0993 1.356C30.0753 1.78 30.7953 2.368 31.2593 3.12C31.7313 3.864 31.9673 4.716 31.9673 5.676C31.9673 6.524 31.7273 7.308 31.2473 8.028C30.7673 8.748 30.0193 9.44 29.0033 10.104C27.9953 10.76 26.6993 11.42 25.1153 12.084L20.6753 13.944ZM18.2513 15.84C18.2513 14.896 18.6193 14.144 19.3553 13.584C20.0913 13.016 21.1593 12.732 22.5593 12.732C23.1913 12.732 23.7873 12.772 24.3473 12.852C24.9073 12.924 25.4553 13.008 25.9913 13.104C26.5273 13.2 27.0753 13.288 27.6353 13.368C28.1953 13.44 28.7873 13.476 29.4113 13.476C29.9473 13.476 30.3793 13.376 30.7073 13.176C31.0433 12.968 31.3473 12.644 31.6193 12.204C31.7473 11.996 31.8833 11.852 32.0273 11.772C32.1793 11.692 32.3433 11.66 32.5193 11.676C32.7273 11.692 32.8833 11.792 32.9873 11.976C33.0993 12.152 33.1393 12.436 33.1073 12.828C33.0033 14.188 32.7633 15.284 32.3873 16.116C32.0113 16.94 31.5113 17.54 30.8873 17.916C30.2713 18.292 29.5433 18.48 28.7033 18.48C28.0313 18.48 27.4433 18.384 26.9393 18.192C26.4433 18.008 26.0153 17.7 25.6553 17.268C25.3033 16.836 24.9993 16.252 24.7433 15.516C24.6153 15.124 24.4953 14.868 24.3833 14.748C24.2793 14.628 24.1393 14.568 23.9633 14.568C23.7713 14.568 23.6113 14.66 23.4833 14.844C23.3553 15.02 23.2713 15.312 23.2313 15.72C23.1753 16.4 23.0313 16.944 22.7993 17.352C22.5673 17.752 22.2553 18.04 21.8633 18.216C21.4793 18.392 21.0193 18.48 20.4833 18.48C19.8353 18.48 19.2993 18.244 18.8753 17.772C18.4593 17.292 18.2513 16.648 18.2513 15.84Z" fill="#83888F"/>
</svg>
