<svg width="32" height="19" viewBox="0 0 32 19" fill="none" xmlns="http://www.w3.org/2000/svg">
<path d="M8.844 0.719999C10.54 0.719999 11.98 1.064 13.164 1.752C14.348 2.44 15.248 3.448 15.864 4.776C16.488 6.104 16.8 7.724 16.8 9.636C16.8 11.436 16.464 13 15.792 14.328C15.128 15.648 14.188 16.672 12.972 17.4C11.764 18.12 10.336 18.48 8.688 18.48C7 18.48 5.56 18.136 4.368 17.448C3.184 16.76 2.28 15.752 1.656 14.424C1.04 13.096 0.732 11.476 0.732 9.564C0.732 7.764 1.064 6.204 1.728 4.884C2.4 3.556 3.344 2.532 4.56 1.812C5.776 1.084 7.204 0.719999 8.844 0.719999ZM11.136 10.2C11.136 8.232 11.044 6.66 10.86 5.484C10.684 4.308 10.412 3.46 10.044 2.94C9.684 2.42 9.224 2.16 8.664 2.16C8.152 2.16 7.728 2.388 7.392 2.844C7.056 3.292 6.804 4.02 6.636 5.028C6.476 6.028 6.396 7.352 6.396 9C6.396 10.968 6.484 12.54 6.66 13.716C6.844 14.892 7.116 15.74 7.476 16.26C7.844 16.78 8.308 17.04 8.868 17.04C9.38 17.04 9.804 16.816 10.14 16.368C10.476 15.912 10.724 15.184 10.884 14.184C11.052 13.176 11.136 11.848 11.136 10.2ZM24.5993 9.288L24.1913 8.892C24.3513 8.844 24.5233 8.804 24.7073 8.772C24.8913 8.74 25.0873 8.716 25.2953 8.7C25.5033 8.676 25.7233 8.664 25.9553 8.664C27.0993 8.664 28.1033 8.84 28.9673 9.192C29.8313 9.544 30.5033 10.048 30.9833 10.704C31.4713 11.352 31.7153 12.128 31.7153 13.032C31.7153 14.136 31.4313 15.096 30.8633 15.912C30.3033 16.728 29.4993 17.36 28.4513 17.808C27.4113 18.256 26.1673 18.48 24.7193 18.48C23.3193 18.48 22.1553 18.312 21.2273 17.976C20.2993 17.64 19.6033 17.176 19.1393 16.584C18.6833 15.992 18.4553 15.316 18.4553 14.556C18.4553 13.788 18.7073 13.16 19.2113 12.672C19.7153 12.176 20.3393 11.928 21.0833 11.928C21.8913 11.928 22.4953 12.14 22.8953 12.564C23.3033 12.98 23.5073 13.536 23.5073 14.232V15.516C23.5073 15.98 23.6073 16.376 23.8073 16.704C24.0153 17.032 24.3073 17.196 24.6833 17.196C25.0593 17.196 25.3793 17.084 25.6433 16.86C25.9073 16.628 26.1113 16.264 26.2553 15.768C26.3993 15.264 26.4713 14.604 26.4713 13.788C26.4713 12.572 26.2793 11.704 25.8953 11.184C25.5193 10.664 24.9993 10.404 24.3353 10.404H23.4713C23.1433 10.404 22.8993 10.332 22.7393 10.188C22.5793 10.036 22.4993 9.824 22.4993 9.552C22.4993 9.344 22.5433 9.16 22.6313 9C22.7273 8.84 22.8953 8.656 23.1353 8.448L28.4753 3.804L28.6193 5.292H22.2593C21.9233 5.292 21.6633 5.352 21.4793 5.472C21.2953 5.584 21.1713 5.772 21.1073 6.036L20.8673 6.984C20.8113 7.216 20.7033 7.404 20.5433 7.548C20.3913 7.684 20.1673 7.752 19.8713 7.752C19.5833 7.752 19.3473 7.676 19.1633 7.524C18.9793 7.364 18.9033 7.124 18.9353 6.804L19.3673 2.316C19.3993 1.972 19.5393 1.7 19.7873 1.5C20.0353 1.3 20.3673 1.2 20.7833 1.2H30.5393C31.0273 1.2 31.3753 1.26 31.5833 1.38C31.7913 1.5 31.8953 1.692 31.8953 1.956C31.8953 2.132 31.8273 2.332 31.6913 2.556C31.5633 2.78 31.2873 3.088 30.8633 3.48L24.5993 9.288Z" fill="#83888F"/>
</svg>
