<svg width="34" height="19" viewBox="0 0 34 19" fill="none" xmlns="http://www.w3.org/2000/svg">
<path d="M8.844 0.719999C10.54 0.719999 11.98 1.064 13.164 1.752C14.348 2.44 15.248 3.448 15.864 4.776C16.488 6.104 16.8 7.724 16.8 9.636C16.8 11.436 16.464 13 15.792 14.328C15.128 15.648 14.188 16.672 12.972 17.4C11.764 18.12 10.336 18.48 8.688 18.48C7 18.48 5.56 18.136 4.368 17.448C3.184 16.76 2.28 15.752 1.656 14.424C1.04 13.096 0.732 11.476 0.732 9.564C0.732 7.764 1.064 6.204 1.728 4.884C2.4 3.556 3.344 2.532 4.56 1.812C5.776 1.084 7.204 0.719999 8.844 0.719999ZM11.136 10.2C11.136 8.232 11.044 6.66 10.86 5.484C10.684 4.308 10.412 3.46 10.044 2.94C9.684 2.42 9.224 2.16 8.664 2.16C8.152 2.16 7.728 2.388 7.392 2.844C7.056 3.292 6.804 4.02 6.636 5.028C6.476 6.028 6.396 7.352 6.396 9C6.396 10.968 6.484 12.54 6.66 13.716C6.844 14.892 7.116 15.74 7.476 16.26C7.844 16.78 8.308 17.04 8.868 17.04C9.38 17.04 9.804 16.816 10.14 16.368C10.476 15.912 10.724 15.184 10.884 14.184C11.052 13.176 11.136 11.848 11.136 10.2ZM25.3913 10.728C25.3913 10.504 25.4273 10.312 25.4993 10.152C25.5793 9.984 25.6913 9.836 25.8353 9.708L29.1473 6.744C29.3633 6.544 29.5393 6.416 29.6753 6.36C29.8193 6.304 29.9593 6.276 30.0953 6.276C30.2793 6.276 30.4233 6.332 30.5273 6.444C30.6393 6.548 30.6953 6.72 30.6953 6.96L30.7193 15.204C30.7193 15.452 30.7713 15.64 30.8753 15.768C30.9793 15.888 31.1233 15.98 31.3073 16.044L32.1233 16.332C32.3793 16.42 32.5713 16.532 32.6993 16.668C32.8353 16.796 32.9033 16.964 32.9033 17.172C32.9033 17.428 32.8193 17.632 32.6513 17.784C32.4913 17.928 32.2353 18 31.8833 18H24.0353C23.3473 18 23.0033 17.728 23.0033 17.184C23.0033 16.76 23.2593 16.476 23.7713 16.332L24.8273 16.044C25.0193 15.988 25.1593 15.9 25.2473 15.78C25.3433 15.66 25.3913 15.476 25.3913 15.228V10.728ZM22.3433 8.304C22.7673 7.928 23.0833 7.576 23.2913 7.248C23.4993 6.912 23.6033 6.584 23.6033 6.264C23.6033 5.984 23.5553 5.724 23.4593 5.484C23.3633 5.236 23.2473 4.988 23.1113 4.74C22.9833 4.492 22.8713 4.224 22.7753 3.936C22.6793 3.64 22.6313 3.304 22.6313 2.928C22.6313 2.424 22.7553 1.976 23.0033 1.584C23.2593 1.184 23.6393 0.871999 24.1432 0.647999C24.6553 0.423999 25.2953 0.311999 26.0633 0.311999C26.9673 0.311999 27.6953 0.531999 28.2473 0.972C28.7993 1.404 29.0753 2.024 29.0753 2.832C29.0753 3.152 29.0193 3.492 28.9073 3.852C28.7953 4.204 28.5633 4.612 28.2113 5.076C27.8593 5.54 27.3233 6.092 26.6033 6.732L19.6673 12.96L19.3553 12.216H32.2793C32.5753 12.216 32.8113 12.276 32.9873 12.396C33.1713 12.508 33.2633 12.692 33.2633 12.948C33.2633 13.508 32.9273 13.788 32.2553 13.788H18.9353C18.6073 13.788 18.3513 13.7 18.1673 13.524C17.9833 13.348 17.8913 13.12 17.8913 12.84C17.8913 12.68 17.9433 12.512 18.0473 12.336C18.1593 12.152 18.3513 11.936 18.6233 11.688L22.3433 8.304Z" fill="#83888F"/>
</svg>
