<svg width="32" height="19" viewBox="0 0 32 19" fill="none" xmlns="http://www.w3.org/2000/svg">
<path d="M8.844 0.719999C10.54 0.719999 11.98 1.064 13.164 1.752C14.348 2.44 15.248 3.448 15.864 4.776C16.488 6.104 16.8 7.724 16.8 9.636C16.8 11.436 16.464 13 15.792 14.328C15.128 15.648 14.188 16.672 12.972 17.4C11.764 18.12 10.336 18.48 8.688 18.48C7 18.48 5.56 18.136 4.368 17.448C3.184 16.76 2.28 15.752 1.656 14.424C1.04 13.096 0.732 11.476 0.732 9.564C0.732 7.764 1.064 6.204 1.728 4.884C2.4 3.556 3.344 2.532 4.56 1.812C5.776 1.084 7.204 0.719999 8.844 0.719999ZM11.136 10.2C11.136 8.232 11.044 6.66 10.86 5.484C10.684 4.308 10.412 3.46 10.044 2.94C9.684 2.42 9.224 2.16 8.664 2.16C8.152 2.16 7.728 2.388 7.392 2.844C7.056 3.292 6.804 4.02 6.636 5.028C6.476 6.028 6.396 7.352 6.396 9C6.396 10.968 6.484 12.54 6.66 13.716C6.844 14.892 7.116 15.74 7.476 16.26C7.844 16.78 8.308 17.04 8.868 17.04C9.38 17.04 9.804 16.816 10.14 16.368C10.476 15.912 10.724 15.184 10.884 14.184C11.052 13.176 11.136 11.848 11.136 10.2ZM18.4793 14.628C18.4793 13.844 18.7353 13.2 19.2473 12.696C19.7593 12.184 20.3913 11.928 21.1433 11.928C21.9353 11.928 22.5313 12.144 22.9313 12.576C23.3313 13.008 23.5312 13.564 23.5312 14.244V15.912C23.5312 16.28 23.6353 16.604 23.8433 16.884C24.0593 17.156 24.3713 17.292 24.7793 17.292C25.2753 17.292 25.6833 17 26.0033 16.416C26.3233 15.832 26.4833 14.9 26.4833 13.62C26.4833 12.188 26.2393 11.156 25.7513 10.524C25.2713 9.892 24.6273 9.576 23.8193 9.576C23.5793 9.576 23.3433 9.608 23.1113 9.672C22.8873 9.736 22.6593 9.836 22.4273 9.972C22.1953 10.1 21.9433 10.272 21.6713 10.488C21.4233 10.68 21.2113 10.816 21.0353 10.896C20.8593 10.968 20.6673 11.004 20.4593 11.004C20.2273 11.004 20.0193 10.94 19.8353 10.812C19.6593 10.676 19.5713 10.464 19.5713 10.176V2.196C19.5713 1.804 19.6833 1.496 19.9073 1.272C20.1313 1.048 20.4873 0.935999 20.9753 0.935999C21.1593 0.935999 21.3593 0.955999 21.5753 0.995999C21.7913 1.028 22.0673 1.092 22.4033 1.188C22.8193 1.3 23.2793 1.4 23.7833 1.488C24.2873 1.576 24.8113 1.644 25.3553 1.692C25.9073 1.74 26.4513 1.764 26.9873 1.764C27.9153 1.764 28.6353 1.7 29.1473 1.572C29.6593 1.436 30.0593 1.264 30.3473 1.056C30.6433 0.847999 30.8793 0.727999 31.0553 0.696C31.2313 0.656 31.3793 0.659999 31.4993 0.707999C31.6113 0.747999 31.7033 0.835999 31.7753 0.972C31.8473 1.1 31.8633 1.304 31.8233 1.584C31.6793 2.72 31.3713 3.632 30.8993 4.32C30.4273 5 29.7753 5.492 28.9433 5.796C28.1193 6.092 27.1033 6.24 25.8953 6.24C25.2233 6.24 24.5353 6.2 23.8313 6.12C23.1273 6.032 22.4593 5.912 21.8273 5.76C21.1953 5.608 20.6513 5.432 20.1953 5.232L21.4073 3.756V9.768L20.6873 9.54C21.1513 9.124 21.6113 8.792 22.0673 8.544C22.5313 8.288 23.0313 8.104 23.5673 7.992C24.1113 7.88 24.7433 7.824 25.4633 7.824C26.7193 7.824 27.8153 8.032 28.7513 8.448C29.6953 8.864 30.4273 9.456 30.9473 10.224C31.4753 10.984 31.7393 11.884 31.7393 12.924C31.7393 14.116 31.4393 15.128 30.8393 15.96C30.2473 16.784 29.4113 17.412 28.3313 17.844C27.2513 18.268 25.9913 18.48 24.5513 18.48C23.1993 18.48 22.0713 18.312 21.1673 17.976C20.2713 17.64 19.5993 17.184 19.1513 16.608C18.7033 16.024 18.4793 15.364 18.4793 14.628Z" fill="#83888F"/>
</svg>
